<?xml version="1.0" standalone="no"?>
<!DOCTYPE svg PUBLIC "-//W3C//DTD SVG 20010904//EN"
 "http://www.w3.org/TR/2001/REC-SVG-20010904/DTD/svg10.dtd">
<svg version="1.0" xmlns="http://www.w3.org/2000/svg"
 width="32" height="32" viewBox="0 0 320.000000 325.000000"
 preserveAspectRatio="xMidYMid meet">

<g transform="translate(0.000000,347.000000) scale(0.100000,-0.100000)"
fill="#fff" stroke="none">
<path d="M1663 3209 c-165 -25 -369 -93 -511 -171 -304 -166 -572 -487 -682
-816 -57 -171 -73 -279 -73 -477 0 -148 3 -198 22 -285 88 -416 331 -763 686
-980 338 -207 786 -266 1174 -154 376 109 683 353 879 697 237 417 253 929 42
1362 -202 415 -553 693 -1010 802 -87 20 -137 25 -285 28 -99 2 -208 0 -242
-6z m432 -629 c206 -65 371 -205 464 -395 72 -147 74 -157 78 -565 l4 -365
-23 -34 c-48 -71 -62 -76 -236 -79 -149 -3 -159 -2 -202 21 -81 43 -85 57 -85
327 0 217 2 238 20 269 40 69 60 76 221 79 166 4 154 -7 128 119 -27 134 -100
263 -191 342 -67 58 -192 117 -292 137 -195 39 -397 -23 -542 -166 -99 -97
-179 -274 -179 -395 l0 -35 133 0 c118 0 136 -3 171 -23 72 -41 76 -60 76
-328 0 -228 -1 -237 -22 -269 -48 -70 -63 -75 -236 -78 -149 -3 -159 -2 -202
20 -32 17 -52 37 -68 68 -23 45 -23 46 -19 390 4 394 7 414 95 585 37 72 64
108 137 181 80 80 104 98 195 142 140 68 211 83 375 78 97 -3 148 -10 200 -26z"/>
</g>
</svg>
